# xmcd
#
# Track frame offsets: 
#        150
#        11024
#        26298
#        43139
#        67871
#        84370
#        107220
#        128182
#        146440
#        168622
#        180069
#        206614
#        224029
#        241844
#
# Disc length: 3572 seconds
#
# Revision: 0
# Processed by: cddbd v1.5.2PL0 Copyright (c) Steve Scherf et al.
# Submitted via: ExactAudioCopy v1.0b2
#
DISCID=ba0df20e
DTITLE=Godley and Creme - Birds of Prey (SHM-CD)
DYEAR=1983
DGENRE=Pop/Rock
TTITLE0=My Body The Car
TTITLE1=Worm and The Rattle Snake
TTITLE2=Cats Eyes
TTITLE3=Samson
TTITLE4=Save A Mountain For Me
TTITLE5=Madame Guillotine
TTITLE6=Woodwork
TTITLE7=Twisted Nerve
TTITLE8=Out In The Cold
TTITLE9=Welcome To Breakfast Television
TTITLE10=Samson (Dance Mix)
TTITLE11=Golden Boy
TTITLE12=Samson (UK 7" Promo Single Edit)
TTITLE13=Golden Boy (Long Version)
EXTD=
EXTT0=
EXTT1=
EXTT2=
EXTT3=
EXTT4=
EXTT5=
EXTT6=
EXTT7=
EXTT8=
EXTT9=
EXTT10=
EXTT11=
EXTT12=
EXTT13=
PLAYORDER=
